<svg xmlns="http://www.w3.org/2000/svg" viewBox="0 0 512 512" width="512" height="512">
  <defs>
    <linearGradient id="bgGrad192" x1="0%" y1="0%" x2="100%" y2="100%">
      <stop offset="0%" stop-color="#1c1917" />
      <stop offset="50%" stop-color="#0c0a09" />
      <stop offset="100%" stop-color="#18181b" />
    </linearGradient>
    <linearGradient id="goldGrad192" x1="0%" y1="0%" x2="100%" y2="100%">
      <stop offset="0%" stop-color="#fbbf24" />
      <stop offset="50%" stop-color="#f59e0b" />
      <stop offset="100%" stop-color="#d97706" />
    </linearGradient>
    <linearGradient id="accentGrad192" x1="0%" y1="0%" x2="100%" y2="100%">
      <stop offset="0%" stop-color="#38bdf8" />
      <stop offset="100%" stop-color="#0284c7" />
    </linearGradient>
  </defs>

  <rect width="512" height="512" rx="112" fill="url(#bgGrad192)"/>
  <rect width="504" height="504" x="4" y="4" rx="108" fill="none" stroke="#292524" stroke-width="4"/>

  <!-- Shield Shape -->
  <path d="M 256 90 L 375 145 C 375 270 256 375 256 375 C 256 375 137 270 137 145 Z" 
        fill="#1c1917" 
        stroke="url(#goldGrad192)" 
        stroke-width="14" 
        stroke-linejoin="round"/>

  <!-- Chevrons -->
  <path d="M 200 270 L 256 315 L 312 270" 
        fill="none" 
        stroke="url(#accentGrad192)" 
        stroke-width="16" 
        stroke-linecap="round" 
        stroke-linejoin="round"/>

  <path d="M 195 220 L 256 265 L 317 220" 
        fill="none" 
        stroke="url(#goldGrad192)" 
        stroke-width="18" 
        stroke-linecap="round" 
        stroke-linejoin="round"/>

  <!-- Star -->
  <path d="M 256 150 L 272 180 L 302 185 L 278 204 L 285 234 L 256 218 L 227 234 L 234 204 L 210 185 L 240 180 Z" 
        fill="url(#goldGrad192)"/>
</svg>
